<svg width="22" height="17" viewBox="0 0 22 17" fill="none" xmlns="http://www.w3.org/2000/svg">
<path d="M1.5 16C1.5 13.2888 3.96243 11.5 7 11.5C10.0376 11.5 12.5 13.2888 12.5 16M20.5 13.5C20.5 10.7888 18.0376 9 15 9C13.8924 9 12.8621 9.2256 12 9.6458M9.5 6C9.5 7.3807 8.38071 8.5 7 8.5C5.61929 8.5 4.5 7.3807 4.5 6C4.5 4.61929 5.61929 3.5 7 3.5C8.38071 3.5 9.5 4.61929 9.5 6ZM17.5 3.5C17.5 4.88071 16.3807 6 15 6C13.6193 6 12.5 4.88071 12.5 3.5C12.5 2.11929 13.6193 1 15 1C16.3807 1 17.5 2.11929 17.5 3.5Z" stroke="#191644" stroke-width="1.25" stroke-linecap="round"/>
</svg>
