<svg width="78" height="126" viewBox="0 0 78 126" fill="none" xmlns="http://www.w3.org/2000/svg">
<g clip-path="url(#clip0_1702_44015)">
<path d="M67.6664 25.9163C67.4524 24.8856 66.1042 24.5293 65.0601 24.7229C64.6309 24.8015 64.1989 24.9384 63.7631 24.8972C62.9286 24.8059 62.3066 24.0733 61.5046 23.825C60.3516 23.4657 59.1504 24.1716 58.2387 24.955C57.327 25.7385 56.4353 26.6738 55.2495 26.8974C52.8214 27.3508 50.8508 24.6345 48.3839 24.4809C47.0299 24.3971 45.7507 25.1116 44.7101 25.973C43.6696 26.8344 42.7681 27.8659 41.6445 28.6181C40.6586 29.2794 39.5272 29.7022 38.3929 30.082C37.731 30.304 37.0275 30.5166 36.3429 30.3751C35.5678 30.2158 34.7743 29.6243 34.0744 29.9777C33.8518 30.1061 33.6662 30.2892 33.5356 30.5096C32.5241 32.0227 32.8563 34.2714 34.2613 35.4395C34.5066 35.6422 34.8073 35.8705 34.7787 36.1912C34.753 36.3394 34.6881 36.4779 34.5906 36.5927C34.2349 37.0934 33.8443 37.5874 33.656 38.1698C33.4676 38.7523 33.5139 39.4598 33.9527 39.89C34.2428 40.1454 34.6078 40.3014 34.9937 40.3349C36.7695 40.5732 38.4843 39.4011 40.2701 39.5415C40.5003 39.5473 40.7249 39.6142 40.9207 39.735C41.269 39.9805 41.3575 40.4489 41.4558 40.8601C41.9931 43.0096 43.8336 44.7086 45.954 45.3996C48.0743 46.0906 50.4213 45.8601 52.5122 45.0935C52.6639 45.0458 52.8071 44.9747 52.9365 44.8829C53.1263 44.7096 53.273 44.4949 53.3653 44.2558C54.222 42.4673 55.3014 40.621 57.1037 39.7699C58.2721 39.2227 59.7803 39.0334 60.4297 37.9259C60.8383 37.225 60.7647 36.3541 60.9534 35.564C61.1249 34.888 61.4851 34.2741 61.9926 33.7929C62.5001 33.3116 63.1342 32.9826 63.8222 32.8436C64.1231 32.7878 64.4482 32.7639 64.6889 32.5756C64.8895 32.3857 65.0342 32.1451 65.1076 31.8796C65.533 30.7374 65.8799 29.5168 66.4048 28.4169C66.8092 27.5539 67.8962 27.0007 67.6664 25.9163Z" fill="#020720"/>
<g opacity="0.1">
<path d="M33.8229 39.3201C34.1144 39.5728 34.4796 39.7262 34.8648 39.758C36.6377 40.0049 38.3537 38.824 40.1393 38.9662C40.3694 38.9713 40.5941 39.0376 40.7901 39.1579C41.1402 39.4037 41.2269 39.8719 41.3252 40.2831C41.8622 42.4342 43.7045 44.1335 45.8249 44.8245C47.9452 45.5155 50.2922 45.285 52.3813 44.5182C52.5329 44.4702 52.6761 44.3991 52.8057 44.3075C52.9952 44.134 53.1418 43.9194 53.2344 43.6804C54.0914 41.8902 55.1705 40.0457 56.9731 39.1928C58.1445 38.6372 59.6512 38.4583 60.2991 37.3488C60.7097 36.6465 60.6361 35.7755 60.8228 34.9869C60.9941 34.3105 61.3545 33.6963 61.8623 33.215C62.3702 32.7338 63.0049 32.4051 63.6933 32.2667C63.9943 32.211 64.3196 32.1853 64.5601 31.9987C64.7609 31.8085 64.9052 31.5671 64.9772 31.3008C65.4041 30.1606 65.7495 28.938 66.2742 27.8398C66.6269 27.1045 67.4869 26.5889 67.5628 25.7618C67.5794 25.8083 67.5931 25.8559 67.6037 25.9041C67.8353 26.9888 66.7465 27.5417 66.3406 28.3903C65.8159 29.4885 65.4705 30.7111 65.0436 31.8513C64.9716 32.1176 64.8273 32.359 64.6264 32.5492C64.3859 32.7358 64.0606 32.7615 63.7597 32.8172C63.071 32.9557 62.4361 33.2846 61.9281 33.7662C61.4202 34.2478 61.06 34.8624 60.8889 35.5392C60.7022 36.3277 60.7758 37.1987 60.3652 37.9011C59.7166 39.0158 58.2094 39.1981 57.0392 39.7451C55.2399 40.6002 54.1611 42.4429 53.3005 44.2327C53.208 44.4717 53.0613 44.6862 52.8718 44.8598C52.7422 44.9514 52.599 45.0225 52.4474 45.0704C50.3573 45.8442 48.0186 46.067 45.891 45.3768C43.7634 44.6865 41.9336 42.9872 41.3913 40.8353C41.2878 40.4234 41.2045 39.9557 40.8562 39.7102C40.6602 39.5898 40.4355 39.5236 40.2054 39.5184C38.4195 39.378 36.7047 40.5501 34.9309 40.3103C34.5453 40.2769 34.1804 40.1216 33.8897 39.8672C33.749 39.7176 33.6407 39.5408 33.5716 39.348C33.5025 39.1552 33.4741 38.9505 33.4881 38.7464C33.5482 38.963 33.6635 39.1605 33.8229 39.3201Z" fill="black"/>
<path d="M34.1323 34.8642C34.3763 35.0757 34.68 35.2954 34.6514 35.6162C34.6441 35.6804 34.6251 35.7427 34.5954 35.8001C34.4796 35.6564 34.3462 35.5275 34.1984 35.4165C33.8039 35.074 33.4844 34.6548 33.2599 34.1848C33.0353 33.7148 32.9105 33.2041 32.8931 32.6845C33.0395 33.5313 33.4775 34.3018 34.1323 34.8642Z" fill="black"/>
</g>
<path d="M51.1089 111.232C51.6571 113.239 50.5742 114.906 50.0386 116.031C49.503 117.156 50.6608 118.135 51.7611 118.578C52.8614 119.02 55.3247 122.511 55.3247 122.511C55.3247 122.511 58.532 125.153 59.7716 125.083C61.0113 125.012 58.8172 122.155 58.8172 122.155L56.5302 116.267C56.5649 115.697 55.9568 113.171 55.9568 113.171L55.4306 104.188L55.3608 102.995L49.2329 101.764C49.2329 101.764 49.4187 102.805 49.6784 104.213C50.1156 106.581 50.765 109.979 51.1089 111.232Z" fill="#FFB6B6"/>
<path d="M6.04424 73.8172C6.20574 74.262 8.65601 75.1125 8.65601 75.1125L10.2993 75.6732C10.2993 75.6732 12.8731 77.4087 14.8897 77.6895L25.5186 80.8713L26.9446 81.2988L27.7963 75.1812C27.7963 75.1812 27.0527 75.1557 26.001 75.1087C23.653 74.9876 19.7771 74.7213 19.2982 74.2712C18.6057 73.6211 18.3934 71.4619 17.0675 71.5223C15.7417 71.5826 13.9603 73.1305 13.9603 73.1305C13.9603 73.1305 12.0449 73.7281 10.3519 73.0487C8.659 72.3693 5.88273 73.3723 6.04424 73.8172Z" fill="#FFB6B6"/>
<path opacity="0.1" d="M25.2001 80.3443C25.2001 80.3443 25.3319 80.5401 25.5184 80.8695L26.9444 81.297L27.7959 75.1812C27.7959 75.1812 27.0523 75.1557 26.0006 75.1087C24.0673 76.2326 25.2001 80.3443 25.2001 80.3443Z" fill="black"/>
<path d="M46.3729 81.8513L39.8659 85.8718C38.8497 86.4991 37.6569 86.7852 36.4632 86.6882C34.6352 86.542 31.7689 86.4073 29.626 86.7514L29.2643 83.0842C29.2643 83.0842 26.7972 82.8295 26.3863 81.9293C26.1453 81.3981 25.8661 80.8847 25.5509 80.3932C25.5509 80.3932 24.3471 76.0338 26.5394 75.0524C26.5394 75.0524 28.8692 74.6883 29.4152 74.1432C29.9612 73.5981 33.2264 72.9222 34.1819 73.1209C35.1374 73.3196 37.9656 73.8696 37.9656 73.8696C37.9656 73.8696 39.26 72.7632 39.7451 72.9638C40.2302 73.1644 42.0037 73.2783 42.0037 73.2783C42.0037 73.2783 42.6573 72.1146 43.3851 70.4182C44.1128 68.7217 47.0711 68.4912 47.0711 68.4912L46.3729 81.8513Z" fill="#D6EFFF"/>
<path opacity="0.1" d="M46.3729 81.8513L39.8659 85.8718C38.8497 86.4991 37.6569 86.7852 36.4632 86.6882C34.6352 86.542 31.7689 86.4073 29.626 86.7514L29.2643 83.0842C29.2643 83.0842 26.7972 82.8295 26.3863 81.9293C26.1453 81.3981 25.8661 80.8847 25.5509 80.3932C25.5509 80.3932 24.3471 76.0338 26.5394 75.0524C26.5394 75.0524 28.8692 74.6883 29.4152 74.1432C29.9612 73.5981 33.2264 72.9222 34.1819 73.1209C35.1374 73.3196 37.9656 73.8696 37.9656 73.8696C37.9656 73.8696 39.26 72.7632 39.7451 72.9638C40.2302 73.1644 42.0037 73.2783 42.0037 73.2783C42.0037 73.2783 42.6573 72.1146 43.3851 70.4182C44.1128 68.7217 47.0711 68.4912 47.0711 68.4912L46.3729 81.8513Z" fill="black"/>
<path d="M55.0147 38.8864L55.6433 39.0963L55.6836 39.102L55.7759 39.1326L56.8523 39.4901L57.1367 39.9378L57.1488 39.9537L58.0623 41.3906L58.8581 42.4154L58.8654 42.427L59.5393 43.2875L60.6751 44.7714L60.8207 45.3435L61.1342 46.6099L61.2162 46.9319L62.3375 48.5078L62.929 50.4092L64.7354 51.8142L66.9999 51.0204L68.1583 49.7619L68.2169 47.7363L68.2285 47.3315L67.7277 46.2165L67.2737 45.2021L66.3582 43.433L64.3723 41.648L63.9938 41.4906L63.5696 41.3145C63.5426 41.2621 63.5185 41.2084 63.4973 41.1535C63.4687 41.0872 63.4441 41.0191 63.4238 40.9499C63.0779 39.8262 63.4699 38.2818 63.9968 36.9372C64.397 35.9322 64.8772 34.9606 65.4327 34.0315L59.7612 32.3989C59.7612 32.3989 59.6622 33.5209 59.4203 35.2583C59.3597 35.6935 59.294 36.1653 59.2114 36.6685C58.9652 38.2314 57.4047 38.7063 56.258 38.8412C55.9625 38.8769 55.6652 38.8948 55.3675 38.8947C55.1489 38.898 55.0147 38.8864 55.0147 38.8864Z" fill="#FFB6B6"/>
<path d="M64.0187 40.9781C64.0187 40.9781 63.9011 39.8969 66.375 37.535C68.8489 35.1731 69.8555 30.8322 69.8555 30.8322C69.8555 30.8322 70.6967 28.6422 70.2615 27.9161C69.8263 27.19 69.9494 19.8866 69.9494 19.8866L69.0663 15.6376C69.0663 15.6376 63.0021 7.51706 66.0605 7.05556C68.1385 6.74149 70.1024 10.1224 71.1356 12.3178C71.6466 13.397 71.91 14.5751 71.9066 15.7668L74.3888 27.1598C74.3888 27.1598 74.6015 28.5204 73.8918 30.7287C73.1822 32.9369 71.7479 36.819 71.7479 36.819L68.7297 42.1274C68.7297 42.1274 67.0658 45.4628 67.6167 45.9743L66.5327 43.7843L64.0187 40.9781Z" fill="#FFB6B6"/>
<path d="M27.6856 46.1286C27.6856 46.1286 28.1839 48.3276 29.8301 48.3793C31.4764 48.4311 39.5887 47.2979 39.5887 47.2979C39.5887 47.2979 43.057 46.1392 44.3222 46.3597C45.5875 46.5803 51.7937 44.6936 51.7937 44.6936C51.7937 44.6936 52.1294 45.287 52.5085 45.9148C52.9205 46.6021 53.3837 47.3321 53.5209 47.3743C53.7778 47.4544 57.776 48.5879 57.776 48.5879L60.7136 47.7103L61.1349 46.6101L61.3321 46.1051L60.8144 45.3427L60.1334 44.341L58.8617 42.4212L58.8543 42.4095L57.1423 39.9546L57.1302 39.9387L55.9123 39.2367L55.6774 39.1011L55.637 39.0955C55.4863 39.0479 54.9012 38.9114 54.0448 39.2465C53.4483 39.4804 52.8077 39.5837 52.1668 39.5493C50.8936 39.4631 49.629 39.8046 48.5765 40.5189L41.6164 43.0051L30.893 45.2388C30.893 45.2388 30.7131 40.1116 29.0711 40.9922C27.4291 41.8727 27.6856 46.1286 27.6856 46.1286Z" fill="#FFB6B6"/>
<path opacity="0.1" d="M52.5083 45.915C52.9203 46.6024 53.3835 47.3324 53.5206 47.3746C53.7776 47.4547 57.7758 48.5882 57.7758 48.5882L60.7134 47.7105L61.1347 46.6103L61.2168 46.9323L62.338 48.5082L62.9295 50.4096L64.7359 51.8146L67.0004 51.0208L68.1588 49.7623L68.2174 47.7367C68.1399 47.4845 67.928 46.7984 67.7283 46.2169C67.6399 45.8995 67.5159 45.5929 67.3586 45.3029C67.1993 45.1636 67.187 43.9037 67.187 43.9037C66.7082 41.5139 64.0898 40.7927 64.0898 40.7927L63.6084 41.1303L63.3959 41.2959C63.4729 41.2942 63.4061 41.1198 63.4989 41.1594C63.6471 41.2244 63.6833 41.4655 63.8637 41.6201C64.8452 42.4667 66.3042 44.3256 66.8632 45.1896C66.9985 45.3983 67.1397 45.6043 67.2851 45.8056C68.1069 46.9511 67.7432 48.2669 67.7432 48.2669C67.838 49.3449 65.6036 49.8324 65.6036 49.8324C65.1471 48.7715 61.5125 45.5147 61.5125 45.5147L59.2302 42.1356C58.6017 40.5893 57.1061 39.4174 56.2593 38.8488C55.8849 38.5979 55.6354 38.4638 55.6354 38.4638L54.5658 38.7514C54.8423 38.7176 55.1228 38.7691 55.3693 38.8988C55.512 38.9653 55.6488 39.0437 55.7782 39.1332C55.8272 39.1666 55.8759 39.2018 55.9209 39.2382C56.1749 39.4359 56.4086 39.6581 56.6186 39.9015L58.5452 42.6774C60.0179 44.7973 58.2885 47.6533 55.717 47.3396L55.6942 47.3365C54.0766 47.4768 53.053 46.5996 52.5083 45.915Z" fill="black"/>
<path opacity="0.1" d="M49.2326 101.769C49.2326 101.769 49.4184 102.81 49.6781 104.218C51.3754 104.584 54.299 104.32 55.4302 104.194L55.3605 103L49.2326 101.769Z" fill="black"/>
<path d="M63.3941 41.2956L64.0347 40.8027C64.0347 40.8027 66.0218 41.3598 66.9799 43.6832C66.9799 43.6832 67.3432 45.3753 67.5078 45.5153C67.6724 45.6554 68.3971 48.051 68.3971 48.051C68.3971 48.051 69.1317 51.8641 67.7842 53.9551C66.4366 56.0462 66.2477 57.0687 66.2477 57.0687L65.0121 60.2686L64.2874 63.1243L60.5514 69.5697L57.4828 72.8391C57.4828 72.8391 57.3504 75.5483 57.8249 75.9924C58.2993 76.4364 57.7927 78.3163 57.7927 78.3163L57.4206 83.3897C57.4206 83.3897 58.2427 85.034 57.9682 87.4803C57.6937 89.9266 57.9703 90.675 57.9703 90.675C57.9703 90.675 57.8608 92.745 57.2482 93.6144C56.6356 94.4839 57.7496 95.6364 57.7496 95.6364L56.1688 99.1201L55.9438 103.792C55.9438 103.792 50.7991 104.474 49.0366 103.652C47.2742 102.829 46.2552 103.087 46.2552 103.087L44.8073 89.4137L45.1127 78.8756C45.1127 78.8756 46.0702 71.5109 45.3969 69.1314C44.8183 67.0987 46.8765 60.4303 50.8628 59.6721C51.6945 59.5146 52.2224 58.6759 52.9694 58.2795C53.6369 57.927 54.7714 57.0325 54.5455 55.0986C54.2288 52.3925 53.0916 48.0424 53.0916 48.0424L52.1741 45.3627C52.1741 45.3627 53.2428 47.7653 55.8414 47.5504L55.8642 47.5536C58.4359 47.8655 60.1653 45.0095 58.6924 42.8913L56.766 40.1137C56.766 40.1137 55.675 38.7958 54.7141 38.9566L55.7821 38.6687C55.7821 38.6687 58.4756 40.1086 59.382 42.3413L61.6644 45.7204C61.6644 45.7204 65.2972 48.9645 65.7527 50.0324C65.7527 50.0324 67.9871 49.5449 67.8923 48.4669C67.8923 48.4669 68.2545 47.1491 67.4344 46.0038C67.2833 45.8053 67.1477 45.5983 67.0123 45.3896C66.2874 44.2664 64.2677 41.2735 63.3941 41.2956Z" fill="#D6EFFF"/>
<path opacity="0.1" d="M60.5675 59.1809C60.5675 59.1809 60.5646 63.8621 59.9522 64.7298L60.5675 59.1809Z" fill="black"/>
<path opacity="0.1" d="M59.9033 60.9077L58.8562 63.447C58.8562 63.447 58.8402 61.8032 59.9033 60.9077Z" fill="black"/>
<path opacity="0.1" d="M64.0225 60.8545C64.0225 60.8545 61.7302 67.3678 59.9578 69.185L64.0225 60.8545Z" fill="black"/>
<path opacity="0.1" d="M53.3175 67.6004C53.3175 67.6004 55.3379 70.1001 56.2595 70.0669C56.2595 70.0669 52.6645 69.7225 51.808 67.6955C51.8073 67.7007 52.6025 67.279 53.3175 67.6004Z" fill="black"/>
<path opacity="0.1" d="M50.1204 66.9778C50.1204 66.9778 52.8016 69.5463 53.3651 69.8253C53.3651 69.8253 50.2711 68.4629 50.1204 66.9778Z" fill="black"/>
<path opacity="0.1" d="M62.4302 52.386C62.4302 52.386 63.657 54.4876 64.4326 54.3738C64.4326 54.3738 62.6034 54.1848 62.4302 52.386Z" fill="black"/>
<path opacity="0.1" d="M60.4029 54.5884C60.4029 54.5884 57.7678 49.7636 56.2092 49.724C56.2092 49.724 59.4492 53.4139 60.4029 54.5884Z" fill="black"/>
<path opacity="0.1" d="M56.1317 52.3717C56.1317 52.3717 58.0494 53.684 57.7885 53.9529C57.5276 54.2219 56.1317 52.3717 56.1317 52.3717Z" fill="black"/>
<path opacity="0.1" d="M49.966 85.7448C49.966 85.7448 56.294 90.6864 56.9016 90.9697C56.9016 90.9697 55.5937 91.698 54.5373 91.1072C53.4808 90.5165 49.966 85.7448 49.966 85.7448Z" fill="black"/>
<path opacity="0.1" d="M54.5751 94.8395C54.5751 94.8395 57.3764 94.9403 57.1434 95.8182C56.9103 96.6962 54.5751 94.8395 54.5751 94.8395Z" fill="black"/>
<path opacity="0.1" d="M59.7612 32.3989C59.7612 32.3989 59.6621 33.5209 59.4202 35.2583C59.996 35.877 60.711 36.3516 61.5066 36.6432C62.3021 36.9347 63.1556 37.0349 63.997 36.9355C64.3972 35.9305 64.8774 34.9589 65.433 34.0298L59.7612 32.3989Z" fill="black"/>
<path d="M62.6646 36.5816C59.735 36.1737 57.6884 33.4853 58.0934 30.5768C58.4983 27.6683 61.2015 25.6411 64.1311 26.049C67.0607 26.4569 69.1073 29.1454 68.7023 32.0539C68.2973 34.9624 65.5942 36.9895 62.6646 36.5816Z" fill="#FFB6B6"/>
<path opacity="0.1" d="M61.5598 34.3354C61.1109 36.4682 60.312 38.8681 58.2779 39.6888C56.8083 40.281 55.122 39.8368 53.6777 39.1814C52.2335 38.526 50.8514 37.6556 49.2941 37.3625C48.0974 37.1373 46.8658 37.2657 45.6542 37.1733C44.4426 37.081 43.1534 36.7116 42.4127 35.7531C41.3515 34.3879 41.8783 32.2482 43.2156 31.1549C44.553 30.0615 46.4349 29.8586 48.1504 30.1454C50.2466 30.4958 52.5074 31.4619 54.348 30.4262C55.5838 29.7287 56.2124 28.3077 57.2975 27.3958C59.1093 25.8733 66.3998 24.3258 67.4742 27.3681C67.9784 28.7924 64.7145 29.3051 63.8547 30.1651C62.4968 31.5217 61.9734 32.3664 61.5598 34.3354Z" fill="black"/>
<path d="M61.4233 34.1266C60.9724 36.2609 60.1752 38.6611 58.1414 39.48C56.6718 40.0722 54.9854 39.628 53.541 38.9743C52.0965 38.3206 50.7146 37.4485 49.1556 37.1551C47.9606 36.9302 46.7293 37.0569 45.5157 36.966C44.3021 36.8751 43.0166 36.5045 42.276 35.546C41.215 34.1791 41.7415 32.0411 43.0789 30.9478C44.4162 29.8544 46.2982 29.6515 48.0118 29.938C50.1083 30.2867 52.3706 31.2548 54.2114 30.2174C55.4472 29.5198 56.0756 28.1006 57.161 27.1869C58.9728 25.6645 66.2631 24.1187 67.3374 27.161C67.8419 28.5836 64.5779 29.0963 63.7162 29.9577C62.3602 31.3129 61.8371 32.1558 61.4233 34.1266Z" fill="#020720"/>
<path opacity="0.1" d="M65.7373 49.8492C65.7516 49.1508 65.6157 48.4571 65.3387 47.8144C65.0617 47.1717 64.6499 46.5949 64.1309 46.1223" fill="black"/>
<path opacity="0.1" d="M42.0512 74.3498C42.0437 74.5227 42.0624 74.6958 42.1066 74.8633C42.2412 75.5789 42.4248 76.2845 42.6562 76.9754C42.1936 76.8702 41.8587 76.4509 41.7192 76.002C41.6064 75.5444 41.575 75.071 41.6262 74.603C41.6293 74.455 41.6456 74.3076 41.675 74.1626C41.7062 74.0285 41.8661 73.5219 42.0795 73.6457C42.2512 73.7477 42.0668 74.2118 42.0512 74.3498Z" fill="black"/>
<path opacity="0.1" d="M42.0356 34.9567C42.778 35.9155 44.0634 36.2861 45.277 36.377C46.4906 36.4679 47.7273 36.3419 48.9167 36.5679C50.4845 36.8625 51.8543 37.7311 53.3003 38.3868C54.7463 39.0424 56.4309 39.4864 57.9023 38.8944C59.9346 38.0736 60.7335 35.6736 61.1824 33.5409C61.596 31.5718 62.1211 30.7274 63.4773 29.3705C64.2977 28.5494 67.2995 28.0446 67.1415 26.7661C67.2213 26.8905 67.2867 27.0234 67.3366 27.1624C67.841 28.5849 64.5771 29.0977 63.7153 29.9591C62.3594 31.3142 61.8357 32.1606 61.4224 34.128C60.9715 36.2622 60.1743 38.6624 58.1405 39.4813C56.6709 40.0735 54.9846 39.6293 53.5401 38.9756C52.0956 38.322 50.7137 37.4499 49.1547 37.1565C47.9598 36.9316 46.7284 37.0583 45.5148 36.9674C44.3012 36.8765 43.0157 36.5058 42.2751 35.5473C42.0649 35.2735 41.911 34.9614 41.822 34.6288C41.8846 34.7434 41.956 34.853 42.0356 34.9567Z" fill="black"/>
<path d="M65.4971 54.3606L65.9467 55.8429L63.9568 55.1524L65.4971 54.3606Z" fill="#FFB6B6"/>
<path opacity="0.1" d="M65.4971 54.3606L65.8327 55.8271L65.9467 55.8429L65.4971 54.3606Z" fill="black"/>
</g>
<defs>
<clipPath id="clip0_1702_44015">
<rect width="61.6119" height="117.943" fill="white" transform="matrix(-0.990446 -0.137903 -0.137903 0.990446 77.2881 8.49609)"/>
</clipPath>
</defs>
</svg>
