<svg width="129" height="22" viewBox="0 0 129 22" fill="none" xmlns="http://www.w3.org/2000/svg">
<path fill-rule="evenodd" clip-rule="evenodd" d="M35.0329 20.336C35.7517 20.7528 36.5608 20.9609 37.4601 20.9609C38.3545 20.9609 39.1579 20.7537 39.871 20.3392C40.5842 19.9248 41.1501 19.359 41.5689 18.6427C41.9876 17.9255 42.2007 17.1177 42.2096 16.2209V8.30708C42.2096 8.06668 42.1364 7.87403 41.9892 7.72996C41.8413 7.58507 41.6494 7.51303 41.4119 7.51303C41.1818 7.51303 40.9915 7.58507 40.8403 7.72996C40.6899 7.87403 40.6142 8.06668 40.6142 8.30708V13.0884C40.2288 12.5873 39.7401 12.1875 39.1498 11.8904C38.5586 11.5934 37.9073 11.4444 37.195 11.4444C36.3404 11.4444 35.5736 11.6533 34.8955 12.0693C34.2173 12.4862 33.6815 13.0528 33.2879 13.7683C32.8952 14.4838 32.6984 15.2924 32.6984 16.1942C32.6984 17.1007 32.9082 17.9134 33.3269 18.6322C33.7449 19.3517 34.3141 19.9199 35.0329 20.336ZM39.1075 19.1121C38.6245 19.4052 38.0756 19.5517 37.4601 19.5517C36.8551 19.5517 36.3087 19.4052 35.82 19.1121C35.3313 18.8199 34.9451 18.4193 34.6597 17.9101C34.3751 17.4018 34.2319 16.8304 34.2319 16.1942C34.2319 15.5563 34.3751 14.9849 34.6597 14.4814C34.9451 13.9779 35.3313 13.5805 35.82 13.2899C36.3087 12.9993 36.8551 12.8536 37.4601 12.8536C38.0756 12.8536 38.6245 12.9993 39.1075 13.2899C39.5905 13.5805 39.9719 13.9779 40.2508 14.4814C40.5305 14.9849 40.6695 15.5563 40.6695 16.1942C40.6695 16.8304 40.5305 17.4018 40.2508 17.9101C39.9719 18.4193 39.5905 18.8199 39.1075 19.1121ZM49.8441 20.3554C50.2995 20.0778 50.689 19.7314 51.0134 19.3161V20.1085C51.0134 20.3384 51.0882 20.527 51.2395 20.6743C51.3907 20.8225 51.5818 20.8961 51.8127 20.8961C52.0445 20.8961 52.2347 20.8225 52.3844 20.6743C52.534 20.527 52.6088 20.3384 52.6088 20.1085V16.2112C52.6047 15.3054 52.3933 14.4927 51.9745 13.7732C51.5558 13.0544 50.9906 12.4862 50.2783 12.0693C49.5652 11.6533 48.7594 11.4444 47.8584 11.4444C46.9583 11.4444 46.1492 11.6533 45.4304 12.0693C44.7124 12.4862 44.1441 13.0536 43.7253 13.7707C43.3073 14.4887 43.0975 15.303 43.0975 16.2144C43.0975 17.1145 43.2951 17.9223 43.6887 18.6394C44.0831 19.3566 44.6189 19.9224 45.2963 20.3384C45.9728 20.7537 46.7388 20.9609 47.5942 20.9609C48.4333 20.9609 49.183 20.7593 49.8441 20.3554ZM49.5067 19.1162C49.0237 19.4068 48.4748 19.5517 47.8584 19.5517C47.2535 19.5517 46.7071 19.4068 46.2184 19.1162C45.7305 18.8248 45.3434 18.4266 45.0588 17.919C44.7742 17.4123 44.6311 16.8425 44.6311 16.2095C44.6311 15.566 44.7742 14.9921 45.0588 14.4887C45.3434 13.9844 45.7305 13.5862 46.2192 13.2932C46.7079 13.0001 47.2543 12.8536 47.8593 12.8536C48.4748 12.8536 49.0245 13.0001 49.5067 13.2932C49.9897 13.5862 50.371 13.9852 50.6499 14.4903C50.9288 14.9946 51.0687 15.5677 51.0687 16.2095C51.0687 16.8409 50.9288 17.4099 50.6499 17.9182C50.371 18.4257 49.9897 18.8248 49.5067 19.1162ZM55.0791 20.1085V15.188C55.0791 14.7437 55.2011 14.3487 55.4434 14.0038C55.6857 13.659 56.0142 13.3846 56.4281 13.1823C56.8428 12.9791 57.3054 12.8779 57.8185 12.8779C58.3682 12.8779 58.8569 12.9831 59.2862 13.1936C59.7156 13.4049 60.0563 13.7246 60.3083 14.1528C60.5596 14.581 60.6856 15.1322 60.6856 15.8048V20.1085C60.6856 20.3336 60.7613 20.5214 60.9117 20.6711C61.0629 20.8217 61.2532 20.8961 61.4833 20.8961C61.7094 20.8961 61.898 20.8217 62.0485 20.6711C62.1997 20.5214 62.2745 20.3336 62.2745 20.1085V15.8048C62.2745 14.861 62.0924 14.0645 61.7265 13.4138C61.3605 12.763 60.8621 12.2692 60.2303 11.9325C59.5993 11.5958 58.8829 11.4274 58.0828 11.4274C57.3307 11.4274 56.6509 11.5917 56.0426 11.9204C55.6759 12.1195 55.3547 12.3607 55.0791 12.6456V12.3138C55.0791 12.0734 55.0067 11.8807 54.862 11.7366C54.7164 11.5917 54.5253 11.5197 54.2879 11.5197C54.0537 11.5197 53.8618 11.5917 53.713 11.7366C53.5642 11.8807 53.4902 12.0734 53.4902 12.3138V20.1085C53.4902 20.3384 53.5642 20.527 53.713 20.6743C53.8618 20.8225 54.0537 20.8961 54.2879 20.8961C54.5253 20.8961 54.7164 20.8225 54.862 20.6743C55.0067 20.527 55.0791 20.3384 55.0791 20.1085ZM65.2701 20.336C65.9824 20.7528 66.7947 20.9609 67.7079 20.9609C68.9512 20.9609 69.9871 20.5788 70.8173 19.8139C70.9645 19.6715 71.0279 19.5079 71.0076 19.3242C70.9864 19.1397 70.8897 18.9737 70.7173 18.8272C70.5766 18.7107 70.418 18.6597 70.2408 18.6742C70.0635 18.6896 69.8919 18.7649 69.7261 18.9001C69.4602 19.1227 69.1626 19.287 68.8316 19.393C68.5015 19.4991 68.1266 19.5517 67.7079 19.5517C67.0785 19.5517 66.5223 19.4068 66.0418 19.1162C65.5612 18.8248 65.1863 18.429 64.9172 17.9279C64.6481 17.4261 64.5139 16.8546 64.5139 16.2112C64.5139 15.5434 64.6432 14.9582 64.9017 14.4571C65.1611 13.9553 65.5222 13.5627 65.9848 13.2794C66.4475 12.9961 66.9817 12.8536 67.5891 12.8536C68.4925 12.8536 69.2447 13.1815 69.8464 13.8363C69.9895 13.9876 70.1505 14.0807 70.3302 14.1163C70.5091 14.152 70.6726 14.1172 70.8205 14.0119C71.0092 13.8768 71.1238 13.7197 71.1653 13.5408C71.2068 13.362 71.1539 13.1904 71.0068 13.0252C70.5595 12.4983 70.0497 12.1033 69.4764 11.8394C68.9032 11.5764 68.2746 11.4444 67.5891 11.4444C66.6915 11.4444 65.8978 11.6492 65.2075 12.0588C64.5163 12.4692 63.9723 13.0333 63.5755 13.7521C63.1787 14.4717 62.9803 15.2916 62.9803 16.2112C62.9803 17.1137 63.1836 17.9223 63.591 18.6378C63.9975 19.3533 64.5578 19.9199 65.2701 20.336ZM73.4275 17.9555C73.216 17.5896 73.0811 17.1865 73.0217 16.7446H79.7211C79.9333 16.7446 80.1065 16.6798 80.2423 16.5511C80.3789 16.4216 80.4464 16.2549 80.4464 16.0509C80.4464 15.1532 80.2741 14.3584 79.9293 13.6655C79.5845 12.9726 79.0893 12.4295 78.4453 12.0353C77.8005 11.6411 77.0353 11.4444 76.1498 11.4444C75.2529 11.4444 74.4593 11.6484 73.7682 12.0555C73.0778 12.4635 72.5363 13.0236 72.1451 13.7375C71.754 14.4506 71.5581 15.2755 71.5581 16.2112C71.5581 17.1363 71.7654 17.9563 72.1793 18.6718C72.594 19.3873 73.1664 19.9483 73.8975 20.353C74.6285 20.7585 75.4652 20.9609 76.4076 20.9609C76.9402 20.9609 77.4964 20.8613 78.0778 20.6606C78.6592 20.4598 79.143 20.2033 79.5284 19.89C79.7008 19.7548 79.7829 19.5938 79.774 19.406C79.7642 19.2174 79.6707 19.045 79.4934 18.8863C79.3576 18.7746 79.1975 18.7212 79.0121 18.7269C78.8267 18.7325 78.6567 18.7932 78.503 18.9106C78.2648 19.0992 77.9501 19.2611 77.5598 19.3971C77.1695 19.533 76.7857 19.6002 76.4076 19.6002C75.7408 19.6002 75.1513 19.4537 74.6374 19.1591C74.1243 18.8653 73.721 18.4638 73.4275 17.9555ZM78.9942 15.4802H73.0445C73.1046 15.1136 73.2112 14.7736 73.3649 14.4587C73.6169 13.9448 73.9804 13.5408 74.4561 13.2462C74.9318 12.9524 75.4961 12.8051 76.1498 12.8051C76.7499 12.8051 77.2622 12.9435 77.6883 13.2187C78.1135 13.4947 78.4421 13.8719 78.673 14.3519C78.8389 14.6951 78.9462 15.0715 78.9942 15.4802ZM82.524 20.1085V15.0626C82.524 14.5332 82.6842 14.0888 83.0046 13.7286C83.3257 13.3684 83.7616 13.1135 84.3137 12.9637C84.865 12.814 85.4903 12.7962 86.1888 12.9095C86.3555 12.9346 86.5075 12.9427 86.645 12.933C86.7824 12.9233 86.9019 12.8812 87.0035 12.8067C87.1052 12.7322 87.1759 12.6124 87.2141 12.4481C87.2906 12.1486 87.1694 11.9018 86.8507 11.7083C86.5319 11.514 86.0595 11.4169 85.4334 11.4169C84.7544 11.4169 84.1332 11.5772 83.5713 11.8961C83.1631 12.1284 82.8135 12.4206 82.524 12.7735V12.2968C82.524 12.0426 82.4573 11.8491 82.3256 11.7172C82.193 11.5853 81.9987 11.5197 81.7434 11.5197C81.4946 11.5197 81.3018 11.5877 81.1661 11.7229C81.0303 11.858 80.9628 12.0491 80.9628 12.2968V20.1085C80.9628 20.3635 81.0303 20.557 81.1661 20.6881C81.3018 20.82 81.4946 20.8864 81.7434 20.8864C81.9987 20.8864 82.193 20.8184 82.3256 20.6832C82.4573 20.5481 82.524 20.3562 82.524 20.1085ZM72.233 9.62888C72.233 10.0757 72.5972 10.4383 73.0461 10.4383H79.1601C79.6089 10.4383 79.9732 10.0757 79.9732 9.62888C79.9732 9.18207 79.6089 8.81945 79.1601 8.81945H73.0461C72.5972 8.81945 72.233 9.18207 72.233 9.62888ZM96.9994 11.9357L93.9225 18.6289L93.1866 20.3562C93.359 20.7027 93.6078 20.8759 93.9323 20.8759C94.2656 20.8759 94.512 20.7027 94.6706 20.3562L98.3638 12.538C98.4468 12.3656 98.4557 12.1907 98.3915 12.0118C98.3273 11.833 98.2004 11.7002 98.0118 11.6136C97.8158 11.5238 97.6206 11.51 97.4263 11.5715C97.232 11.6338 97.0897 11.7552 96.9994 11.9357ZM98.9062 20.6638C99.0558 20.8119 99.2502 20.8864 99.4909 20.8864C99.7202 20.8864 99.9096 20.8119 100.059 20.6638C100.208 20.5149 100.283 20.3271 100.283 20.098V12.3073C100.283 12.0677 100.208 11.8767 100.059 11.7334C99.9096 11.5909 99.7202 11.5197 99.4909 11.5197C99.2502 11.5197 99.0558 11.5909 98.9062 11.7334C98.7574 11.8767 98.6826 12.0677 98.6826 12.3073V20.098C98.6826 20.3271 98.7574 20.5149 98.9062 20.6638ZM98.7346 9.58517C98.9404 9.78995 99.1876 9.89275 99.4738 9.89275C99.7722 9.89275 100.024 9.78995 100.231 9.58517C100.437 9.37957 100.541 9.12784 100.541 8.83159C100.541 8.53453 100.434 8.28604 100.222 8.08611C100.01 7.88699 99.7665 7.78662 99.4909 7.78662C99.2046 7.78662 98.955 7.88699 98.7428 8.08611C98.5305 8.28604 98.4248 8.53453 98.4248 8.83159C98.4248 9.12784 98.5281 9.37957 98.7346 9.58517ZM104.197 20.3392C104.91 20.7537 105.714 20.9609 106.608 20.9609C107.519 20.9609 108.332 20.7528 109.048 20.336C109.762 19.9199 110.33 19.3517 110.748 18.6322C111.167 17.9134 111.376 17.1007 111.376 16.1942C111.376 15.2924 111.18 14.4838 110.787 13.7683C110.394 13.0528 109.858 12.4862 109.179 12.0693C108.501 11.6533 107.734 11.4444 106.88 11.4444C106.168 11.4444 105.517 11.5934 104.927 11.8904C104.338 12.1875 103.847 12.5873 103.454 13.0884V8.30708C103.454 8.06668 103.382 7.87403 103.237 7.72996C103.091 7.58507 102.9 7.51303 102.663 7.51303C102.428 7.51303 102.237 7.58507 102.088 7.72996C101.939 7.87403 101.865 8.06668 101.865 8.30708V16.2209C101.877 17.1177 102.09 17.9255 102.505 18.6427C102.92 19.359 103.484 19.9248 104.197 20.3392ZM108.26 19.1121C107.775 19.4052 107.225 19.5517 106.608 19.5517C106.004 19.5517 105.458 19.4052 104.969 19.1121C104.48 18.8199 104.097 18.4193 103.821 17.9101C103.544 17.4018 103.405 16.8304 103.405 16.1942C103.405 15.5563 103.544 14.9849 103.821 14.4814C104.097 13.9779 104.48 13.5805 104.969 13.2899C105.458 12.9993 106.004 12.8536 106.608 12.8536C107.225 12.8536 107.775 12.9993 108.26 13.2899C108.745 13.5805 109.129 13.9779 109.412 14.4814C109.695 14.9849 109.836 15.5563 109.836 16.1942C109.836 16.8304 109.695 17.4018 109.412 17.9101C109.129 18.4193 108.745 18.8199 108.26 19.1121ZM113.645 17.9555C113.434 17.5896 113.299 17.1865 113.239 16.7446H119.939C120.15 16.7446 120.324 16.6798 120.46 16.5511C120.596 16.4216 120.664 16.2549 120.664 16.0509C120.664 15.1532 120.492 14.3584 120.146 13.6655C119.801 12.9726 119.307 12.4295 118.662 12.0353C118.018 11.6411 117.253 11.4444 116.367 11.4444C115.47 11.4444 114.676 11.6484 113.986 12.0555C113.295 12.4635 112.754 13.0236 112.363 13.7375C111.972 14.4506 111.776 15.2755 111.776 16.2112C111.776 17.1363 111.983 17.9563 112.397 18.6718C112.811 19.3873 113.383 19.9483 114.114 20.353C114.845 20.7585 115.682 20.9609 116.625 20.9609C117.157 20.9609 117.714 20.8613 118.295 20.6606C118.877 20.4598 119.36 20.2033 119.745 19.89C119.918 19.7548 120 19.5938 119.991 19.406C119.982 19.2174 119.888 19.045 119.711 18.8863C119.575 18.7746 119.414 18.7212 119.23 18.7269C119.044 18.7325 118.874 18.7932 118.72 18.9106C118.482 19.0992 118.168 19.2611 117.777 19.3971C117.387 19.533 117.003 19.6002 116.625 19.6002C115.958 19.6002 115.368 19.4537 114.855 19.1591C114.341 18.8653 113.938 18.4638 113.645 17.9555ZM119.212 15.4802H113.262C113.321 15.1136 113.429 14.7736 113.582 14.4587C113.835 13.9448 114.198 13.5408 114.674 13.2462C115.149 12.9524 115.714 12.8051 116.367 12.8051C116.967 12.8051 117.48 12.9435 117.905 13.2187C118.331 13.4947 118.66 13.8719 118.891 14.3519C119.056 14.6951 119.163 15.0715 119.212 15.4802ZM122.405 20.6031C123.081 20.8419 123.795 20.9609 124.55 20.9609C125.329 20.9609 125.993 20.8403 126.542 20.5974C127.091 20.3554 127.513 20.026 127.807 19.6108C128.101 19.1947 128.248 18.722 128.248 18.1926C128.248 17.7491 128.14 17.3508 127.925 16.9987C127.709 16.6458 127.352 16.3374 126.853 16.0727C126.354 15.8081 125.675 15.596 124.814 15.4381C124.191 15.3216 123.713 15.1937 123.381 15.0561C123.049 14.9185 122.821 14.7615 122.699 14.585C122.577 14.4086 122.516 14.2062 122.516 13.9787C122.516 13.6258 122.696 13.3474 123.057 13.1434C123.418 12.9386 123.875 12.8366 124.428 12.8366C124.886 12.8366 125.29 12.8982 125.64 13.0204C125.99 13.1434 126.309 13.3523 126.596 13.6485C126.75 13.7991 126.939 13.8946 127.163 13.9334C127.386 13.9723 127.581 13.9383 127.746 13.8298C127.921 13.706 128.016 13.5522 128.033 13.3676C128.048 13.1831 127.985 13.0066 127.842 12.8366C127.498 12.406 127.039 12.0661 126.465 11.8176C125.892 11.5691 125.224 11.4444 124.462 11.4444C123.865 11.4444 123.3 11.5399 122.77 11.7302C122.24 11.9212 121.81 12.2085 121.479 12.593C121.148 12.9783 120.983 13.4615 120.983 14.0435C120.983 14.6927 121.246 15.2455 121.775 15.702C122.303 16.1585 123.147 16.492 124.305 16.7025C125.2 16.8579 125.826 17.0651 126.184 17.3225C126.542 17.5807 126.718 17.8931 126.711 18.2622C126.699 18.6313 126.513 18.9381 126.152 19.1834C125.792 19.4294 125.244 19.5517 124.508 19.5517C123.971 19.5517 123.483 19.461 123.045 19.2789C122.606 19.0976 122.273 18.8782 122.048 18.6216C121.905 18.4678 121.732 18.378 121.528 18.3521C121.324 18.3254 121.121 18.3901 120.918 18.5472C120.741 18.6864 120.639 18.8612 120.612 19.0709C120.585 19.2813 120.649 19.4683 120.804 19.6334C121.196 20.0406 121.729 20.3643 122.405 20.6031ZM0.751953 17.0101C0.751953 19.4035 2.60915 21.368 4.96562 21.5526V21.5671H25.8697V21.5615C28.2635 21.4449 30.1703 19.4731 30.1703 17.0619C30.1703 14.5753 28.1424 12.5566 25.6444 12.5566C25.294 12.5566 24.9533 12.5962 24.6256 12.6715C25.8233 11.3999 26.5568 9.6912 26.5568 7.81252C26.5568 3.89083 23.3579 0.706543 19.4183 0.706543C15.5282 0.706543 12.3603 3.8107 12.2814 7.66439C11.5845 6.95695 10.6145 6.51824 9.54193 6.51824C7.42372 6.51824 5.70475 8.22937 5.70475 10.3371C5.70475 11.1797 5.97878 11.9584 6.44308 12.5898C6.08693 12.5007 5.7137 12.4538 5.3299 12.4538C2.80349 12.4538 0.751953 14.4952 0.751953 17.0101ZM19.0442 4.90424C18.6881 4.76583 18.188 5.11065 18.092 5.81485L17.9302 5.73391C18.2872 4.89291 18.7417 4.59666 19.1678 4.75288C19.7289 4.96009 19.9248 5.51213 19.6346 6.34098L19.1711 6.15319C19.5167 5.57202 19.3557 5.02566 19.0442 4.90424ZM14.0312 9.89194C13.9133 9.44351 14.0556 9.01776 14.3484 8.94167C14.6411 8.86559 14.9745 9.1675 15.0916 9.61593C15.2095 10.0644 15.0672 10.4901 14.7745 10.5662C14.4817 10.6423 14.1483 10.3404 14.0312 9.89194ZM18.1912 5.54612C18.3352 5.10984 18.6921 4.82896 18.9865 4.91962C19.2808 5.01109 19.4028 5.43927 19.2581 5.87556C19.1133 6.31184 18.7572 6.5919 18.4628 6.50125C18.1685 6.40978 18.0465 5.9824 18.1912 5.54612ZM20.39 8.23585C22.239 7.85704 24.4605 5.45465 24.5979 5.19887C24.184 6.61618 22.757 7.96064 21.073 9.00885C21.0229 9.831 20.5012 10.3426 20.3148 10.5254C20.2714 10.5679 20.2462 10.5927 20.2493 10.5994C20.8258 11.8597 20.6461 13.8589 20.2038 14.3058C20.2038 14.3058 20.3021 12.4724 19.2491 11.1109C19.1841 11.0276 17.8993 11.8062 17.8993 11.8062L18.1856 8.46492C18.1856 8.46492 17.1472 7.80524 16.9106 6.566C16.6373 5.13736 15.5404 4.3603 15.5404 4.3603C15.5404 4.3603 16.2113 4.47443 17.0366 5.34862C17.3582 5.68926 17.5458 5.97499 17.6947 6.20167C17.9274 6.55617 18.0654 6.76625 18.4726 6.81611C19.7533 6.97314 21.5438 4.37892 21.5438 4.37892C21.5438 4.37892 20.6152 6.60404 20.0883 7.28396C19.5752 7.94607 19.1947 8.24233 19.1947 8.24233C19.1947 8.24233 20.0558 8.30384 20.39 8.23585ZM12.0879 12.9605C10.4982 11.8111 9.1744 10.3776 8.84589 8.92386C8.989 9.23792 11.8098 12.7266 13.7271 12.249C14.0483 12.1689 13.7483 11.4857 13.1555 10.8616C12.5619 10.2376 11.8764 8.25932 11.8764 8.25932C11.8764 8.25932 13.4873 10.9741 14.7484 10.8843C15.1493 10.8557 15.2956 10.6507 15.5425 10.3048C15.7003 10.0837 15.8991 9.8052 16.2316 9.47832C17.0854 8.63976 17.7481 8.56043 17.7481 8.56043C17.7481 8.56043 16.6333 9.2873 16.2893 10.7151C15.8308 12.6181 15.4035 13.0478 14.7511 13.7039C14.5358 13.9205 14.2959 14.1617 14.0223 14.4887C12.9717 15.7449 12.679 18.1182 12.6538 18.3391C12.6839 18.3367 12.7148 18.3351 12.7457 18.3351C13.3604 18.3367 13.8581 18.8345 13.8564 19.4464L13.854 20.6177L14.3817 20.6185L14.3882 17.9959C14.389 17.6981 14.5086 17.4132 14.72 17.2035C14.9322 16.9939 15.2184 16.8757 15.5177 16.8765C15.7787 16.8773 16.0291 16.9809 16.2137 17.1655C16.3975 17.35 16.5007 17.5993 16.4999 17.8591L16.4934 20.6233L17.022 20.625L17.0309 16.5948C17.0317 16.3253 17.1399 16.0671 17.3326 15.876C17.5245 15.6858 17.7847 15.5798 18.0555 15.5798C18.3441 15.5806 18.6222 15.6955 18.8255 15.8995C19.0296 16.1035 19.1434 16.3795 19.1426 16.6669L19.1337 20.6298L19.6614 20.6306L19.6736 15.3588C19.6752 14.7639 20.1615 14.2823 20.7591 14.2839C21.0315 14.2847 21.2934 14.3932 21.4861 14.5858C21.6788 14.7785 21.7869 15.0391 21.7861 15.3111L21.7731 20.6355C21.8707 20.6363 21.9496 20.7091 21.9487 20.799C21.9487 20.8888 21.8699 20.9617 21.7731 20.9617L11.565 20.9374C11.4683 20.9374 11.3894 20.8646 11.3894 20.7747C11.3902 20.684 11.4691 20.612 11.5658 20.612L11.7423 20.6128L11.7455 19.3266C11.7455 19.0628 11.8512 18.811 12.0391 18.6249C12.2017 18.4638 12.4139 18.3642 12.6392 18.3408C12.2424 17.8397 12.1773 15.8939 12.8018 14.6643C13.2173 13.8468 12.0879 12.9605 12.0879 12.9605Z" fill="#144E03"/>
<path d="M89.473 12.5444L93.1866 20.3562L93.9225 18.6289L90.8098 11.9357C90.7155 11.7593 90.5781 11.6387 90.3968 11.5747C90.2162 11.5108 90.0349 11.5254 89.8528 11.6201C89.6527 11.714 89.5186 11.8475 89.4511 12.0199C89.3828 12.1931 89.3901 12.368 89.473 12.5444Z" fill="url(#paint0_linear_1612_43991)"/>
<defs>
<linearGradient id="paint0_linear_1612_43991" x1="90" y1="11.9995" x2="94" y2="19.9995" gradientUnits="userSpaceOnUse">
<stop stop-color="#144E03"/>
<stop offset="1" stop-color="#3BBC1B"/>
</linearGradient>
</defs>
</svg>
